<svg width="40" height="40" viewBox="0 0 40 40" fill="none" xmlns="http://www.w3.org/2000/svg">
<g filter="url(#filter0_b_346_10266)">
<rect width="40" height="40" rx="15" fill="white"/>
</g>
<g clip-path="url(#clip0_346_10266)">
<path d="M20 21.25C22.995 21.25 25.7188 22.1175 27.7225 23.3387C28.7225 23.9513 29.5775 24.67 30.195 25.4513C30.8025 26.2213 31.25 27.1413 31.25 28.125C31.25 29.1812 30.7362 30.0138 29.9963 30.6075C29.2962 31.17 28.3725 31.5425 27.3913 31.8025C25.4188 32.3237 22.7863 32.5 20 32.5C17.2137 32.5 14.5812 32.325 12.6087 31.8025C11.6275 31.5425 10.7037 31.17 10.0037 30.6075C9.2625 30.0125 8.75 29.1812 8.75 28.125C8.75 27.1413 9.1975 26.2213 9.805 25.4513C10.4225 24.67 11.2763 23.9513 12.2775 23.3387C14.2812 22.1175 17.0063 21.25 20 21.25ZM20 7.5C21.6576 7.5 23.2473 8.15848 24.4194 9.33058C25.5915 10.5027 26.25 12.0924 26.25 13.75C26.25 15.4076 25.5915 16.9973 24.4194 18.1694C23.2473 19.3415 21.6576 20 20 20C18.3424 20 16.7527 19.3415 15.5806 18.1694C14.4085 16.9973 13.75 15.4076 13.75 13.75C13.75 12.0924 14.4085 10.5027 15.5806 9.33058C16.7527 8.15848 18.3424 7.5 20 7.5Z" fill="black"/>
</g>
<defs>
<filter id="filter0_b_346_10266" x="-25" y="-25" width="90" height="90" filterUnits="userSpaceOnUse" color-interpolation-filters="sRGB">
<feFlood flood-opacity="0" result="BackgroundImageFix"/>
<feGaussianBlur in="BackgroundImageFix" stdDeviation="12.5"/>
<feComposite in2="SourceAlpha" operator="in" result="effect1_backgroundBlur_346_10266"/>
<feBlend mode="normal" in="SourceGraphic" in2="effect1_backgroundBlur_346_10266" result="shape"/>
</filter>
<clipPath id="clip0_346_10266">
<rect width="30" height="30" fill="white" transform="translate(5 5)"/>
</clipPath>
</defs>
</svg>
